<svg width="18" height="17" viewBox="0 0 18 17" fill="none" xmlns="http://www.w3.org/2000/svg">
<path d="M16.7966 13.8085C16.7225 13.7192 16.6497 13.6299 16.5783 13.5437C15.5962 12.3558 15.002 11.6388 15.002 8.27589C15.002 6.53482 14.5855 5.10625 13.7645 4.03482C13.1591 3.2433 12.3408 2.64286 11.2622 2.19911C11.2484 2.19139 11.236 2.18126 11.2256 2.1692C10.8377 0.870089 9.77609 0 8.57877 0C7.38145 0 6.32029 0.870089 5.93234 2.16786C5.92199 2.17948 5.90977 2.18928 5.89618 2.19687C3.37922 3.23304 2.156 5.22098 2.156 8.27455C2.156 11.6388 1.5627 12.3558 0.579662 13.5424C0.508234 13.6286 0.435466 13.7161 0.361359 13.8071C0.16993 14.038 0.048645 14.3189 0.0118559 14.6165C-0.0249333 14.9141 0.0243139 15.2161 0.153769 15.4866C0.429216 16.067 1.01627 16.4272 1.68636 16.4272H15.4761C16.1431 16.4272 16.7261 16.0674 17.0024 15.4897C17.1324 15.2191 17.1822 14.917 17.1457 14.619C17.1092 14.321 16.9881 14.0397 16.7966 13.8085Z" fill="#382F90" fill-opacity="0.6"/>
</svg>
