<svg width="16" height="16" viewBox="0 0 16 16" fill="none" xmlns="http://www.w3.org/2000/svg">
<path d="M6.16663 0H1.16663C0.523315 0 0 0.523315 0 1.16663V4.16663C0 4.81006 0.523315 5.33337 1.16663 5.33337H6.16663C6.81006 5.33337 7.33337 4.81006 7.33337 4.16663V1.16663C7.33337 0.523315 6.81006 0 6.16663 0Z" fill="#A0A0A0"/>
<path d="M6.16663 6.66602H1.16663C0.523315 6.66602 0 7.18933 0 7.83276V14.8328C0 15.4761 0.523315 15.9994 1.16663 15.9994H6.16663C6.81006 15.9994 7.33337 15.4761 7.33337 14.8328V7.83276C7.33337 7.18933 6.81006 6.66602 6.16663 6.66602Z" fill="#A0A0A0"/>
<path d="M14.8334 10.666H9.83337C9.18994 10.666 8.66663 11.1893 8.66663 11.8328V14.8328C8.66663 15.4761 9.18994 15.9994 9.83337 15.9994H14.8334C15.4767 15.9994 16 15.4761 16 14.8328V11.8328C16 11.1893 15.4767 10.666 14.8334 10.666Z" fill="#A0A0A0"/>
<path d="M14.8334 0H9.83337C9.18994 0 8.66663 0.523315 8.66663 1.16663V8.16663C8.66663 8.81006 9.18994 9.33337 9.83337 9.33337H14.8334C15.4767 9.33337 16 8.81006 16 8.16663V1.16663C16 0.523315 15.4767 0 14.8334 0V0Z" fill="#A0A0A0"/>
</svg>
