<svg width="25" height="20" viewBox="0 0 25 20" fill="none" xmlns="http://www.w3.org/2000/svg">
<path d="M18.4424 7.53004L12.7061 11.9915C12.5535 12.1101 12.3658 12.1745 12.1725 12.1745C11.9792 12.1745 11.7914 12.1101 11.6389 11.9915L3.81369 5.90523C3.72175 5.8358 3.64452 5.74879 3.5865 5.64926C3.52848 5.54973 3.49082 5.43966 3.47571 5.32544C3.4606 5.21123 3.46833 5.09515 3.49847 4.98395C3.52861 4.87276 3.58054 4.76866 3.65126 4.6777C3.72198 4.58675 3.81006 4.51076 3.9104 4.45415C4.01074 4.39753 4.12133 4.36142 4.23575 4.34792C4.35016 4.33442 4.46612 4.34379 4.57688 4.37548C4.68765 4.40718 4.791 4.46058 4.88095 4.53257L12.1725 10.2036L17.2925 6.2215C16.7971 5.42005 16.5284 4.49924 16.5149 3.55713C16.5014 2.61502 16.7437 1.68689 17.2159 0.871582H3.04312C2.2363 0.872445 1.46277 1.19334 0.892263 1.76385C0.321754 2.33435 0.000863065 3.10788 0 3.9147V16.9567C0.000863065 17.7635 0.321754 18.537 0.892263 19.1075C1.46277 19.678 2.2363 19.9989 3.04312 19.9998H21.3019C22.1087 19.9989 22.8822 19.678 23.4527 19.1075C24.0232 18.537 24.3441 17.7635 24.345 16.9567V8.00064C23.4297 8.53081 22.3747 8.76975 21.3203 8.68568C20.2659 8.60162 19.2621 8.19854 18.4424 7.53004Z" fill="#382F90"/>
</svg>
